<?xml version="1.0" encoding="UTF-8" standalone="no"?>
<svg xmlns="http://www.w3.org/2000/svg"
     xmlns:xlink="http://www.w3.org/1999/xlink"
     width="610px" height="460px" viewBox="0 0 610 460"
     style="stroke:none">
<title>Graphic window number 0</title>
<desc>
Creator: GL2PS 1.3.2, (C) 1999-2006 Christophe Geuzaine (geuz@geuz.org)
For: Scilab
CreationDate: Mon May 14 03:11:13 2012
</desc>
<defs>
</defs>
<polygon fill="#ffffff" points="0,0 610,0 610,460 0,460"/>
<g>
<polygon fill="#ffffff" points="76.25,402.5 76.25,402.5 76.25,57.5"/>
<polygon fill="#ffffff" points="76.25,402.5 76.25,57.5 76.25,57.5"/>
<polygon fill="#ffffff" points="76.25,402.5 76.25,402.5 533.75,402.5"/>
<polygon fill="#ffffff" points="76.25,402.5 533.75,402.5 533.75,402.5"/>
<polygon fill="#ffffff" points="76.25,57.5 76.25,402.5 533.75,402.5"/>
<polygon fill="#ffffff" points="76.25,57.5 533.75,402.5 533.75,57.5"/>
<polyline fill="none" stroke="#000000" stroke-width="0.5" points="76.25,402.5 76.25,57.5 76.25,57.5 533.75,57.5 533.75,402.5 533.75,402.5 76.25,402.5"/>
<polyline fill="none" stroke="#000000" stroke-width="0.5" points="533.75,57.5 76.25,57.5"/>
<polyline fill="none" stroke="#000000" stroke-width="0.5" points="533.75,57.5 533.75,402.5"/>
<polyline fill="none" stroke="#000000" stroke-width="0.5" points="533.75,57.5 533.75,57.5"/>
<polyline fill="none" stroke="#ff0000" stroke-width="0.5" points="76.25,402.5 79.1094,400.344 81.9688,398.188 84.8281,396.031 87.6875,393.875 90.5469,391.719 93.4062,389.562 96.2656,387.406 99.125,385.25 101.984,383.094 104.844,380.938 107.703,378.781 110.562,376.625 113.422,374.469 116.281,372.312 119.141,370.156 122,368 124.859,365.844 127.719,363.688 130.578,361.531 133.438,359.375 136.297,357.219 139.156,355.062 142.016,352.906 144.875,350.75 147.734,348.594 150.594,346.438 153.453,344.281 156.312,342.125 159.172,339.969 162.031,337.812 164.891,335.656 167.75,333.5 170.609,331.344 173.469,329.188 176.328,327.031 179.188,324.875 182.047,322.719 184.906,320.562 187.766,318.406 190.625,316.25 193.484,314.094 196.344,311.938 199.203,309.781 202.062,307.625 204.922,305.469 207.781,303.312 210.641,301.156 213.5,299 216.359,296.844 219.219,294.688 222.078,292.531 224.938,290.375 227.797,288.219 230.656,286.062 233.516,283.906 236.375,281.75 239.234,279.594 242.094,277.438 244.953,275.281 247.812,273.125 250.672,270.969 253.531,268.812 256.391,266.656 259.25,264.5 262.109,262.344 264.969,260.188 267.828,258.031 270.688,255.875 273.547,253.719 276.406,251.562 279.266,249.406 282.125,247.25 284.984,245.094 287.844,242.938 290.703,240.781 293.562,238.625 296.422,236.469 299.281,234.312 302.141,232.156 305,230 307.859,227.844 310.719,225.688 313.578,223.531 316.438,221.375 319.297,219.219 322.156,217.062 325.016,214.906 327.875,212.75 330.734,210.594 333.594,208.438 336.453,206.281 339.312,204.125 342.172,201.969 345.031,199.812 347.891,197.656 350.75,195.5 353.609,193.344 356.469,191.188 359.328,189.031 362.188,186.875 365.047,184.719 367.906,182.562 370.766,180.406 373.625,178.25 376.484,176.094 379.344,173.938 382.203,171.781 385.062,169.625 387.922,167.469 390.781,165.312 393.641,163.156 396.5,161 399.359,158.844 402.219,156.688 405.078,154.531 407.938,152.375 410.797,150.219 413.656,148.062 416.516,145.906 419.375,143.75 422.234,141.594 425.094,139.438 427.953,137.281 430.812,135.125 433.672,132.969 436.531,130.812 439.391,128.656 442.25,126.5 445.109,124.344 447.969,122.188 450.828,120.031 453.688,117.875 456.547,115.719 459.406,113.563 462.266,111.406 465.125,109.25 467.984,107.094 470.844,104.938 473.703,102.781 476.562,100.625 479.422,98.4688 482.281,96.3125 485.141,94.1562 488,92 490.859,89.8438 493.719,87.6875 496.578,85.5312 499.438,83.375 502.297,81.2188 505.156,79.0625 508.016,76.9062 510.875,74.75 513.734,72.5938 516.594,70.4375 519.453,68.2812 522.312,66.125 525.172,63.9688 528.031,61.8125 530.891,59.6562"/>
<polyline fill="none" stroke="#0000ff" stroke-width="0.5" points="76.25,402.5 139.156,355.062 170.609,331.344 186.336,319.484 194.199,313.555 202.849,307.032 212.363,299.857 222.829,291.965 234.342,283.283 247.006,273.733 260.936,263.228 276.26,251.673 293.115,238.962 311.656,224.98 320.927,217.989 331.125,210.299 342.342,201.84 354.681,192.535 368.254,182.3 383.185,171.041 399.608,158.656 417.674,145.033 437.546,130.047 447.483,122.554 458.412,114.312 470.435,105.246 483.66,95.2727 498.208,84.3024 514.21,72.2351 531.813,58.961"/>
<polygon fill="#ffffff" points="76.2454,398.245 80,402 79.4966,402.503"/>
<polygon fill="#ffffff" points="76.2454,398.245 79.4966,402.503 76.2454,402.503"/>
<polyline fill="none" stroke="#0000ff" stroke-width="0.5" points="76.2454,398.245 80,402 79.4966,402.503"/>
<polygon fill="#ffffff" points="139,359 135,355 139,351"/>
<polygon fill="#ffffff" points="139,359 139,351 143,355"/>
<polyline fill="none" stroke="#0000ff" stroke-width="0.5" points="135,355 139,351 143,355 139,359 135,355"/>
<polygon fill="#ffffff" points="171,335 167,331 171,327"/>
<polygon fill="#ffffff" points="171,335 171,327 175,331"/>
<polyline fill="none" stroke="#0000ff" stroke-width="0.5" points="167,331 171,327 175,331 171,335 167,331"/>
<polygon fill="#ffffff" points="186,323 182,319 186,315"/>
<polygon fill="#ffffff" points="186,323 186,315 190,319"/>
<polyline fill="none" stroke="#0000ff" stroke-width="0.5" points="182,319 186,315 190,319 186,323 182,319"/>
<polygon fill="#ffffff" points="194,318 190,314 194,310"/>
<polygon fill="#ffffff" points="194,318 194,310 198,314"/>
<polyline fill="none" stroke="#0000ff" stroke-width="0.5" points="190,314 194,310 198,314 194,318 190,314"/>
<polygon fill="#ffffff" points="203,311 199,307 203,303"/>
<polygon fill="#ffffff" points="203,311 203,303 207,307"/>
<polyline fill="none" stroke="#0000ff" stroke-width="0.5" points="199,307 203,303 207,307 203,311 199,307"/>
<polygon fill="#ffffff" points="212,304 208,300 212,296"/>
<polygon fill="#ffffff" points="212,304 212,296 216,300"/>
<polyline fill="none" stroke="#0000ff" stroke-width="0.5" points="208,300 212,296 216,300 212,304 208,300"/>
<polygon fill="#ffffff" points="223,296 219,292 223,288"/>
<polygon fill="#ffffff" points="223,296 223,288 227,292"/>
<polyline fill="none" stroke="#0000ff" stroke-width="0.5" points="219,292 223,288 227,292 223,296 219,292"/>
<polygon fill="#ffffff" points="234,287 230,283 234,279"/>
<polygon fill="#ffffff" points="234,287 234,279 238,283"/>
<polyline fill="none" stroke="#0000ff" stroke-width="0.5" points="230,283 234,279 238,283 234,287 230,283"/>
<polygon fill="#ffffff" points="247,278 243,274 247,270"/>
<polygon fill="#ffffff" points="247,278 247,270 251,274"/>
<polyline fill="none" stroke="#0000ff" stroke-width="0.5" points="243,274 247,270 251,274 247,278 243,274"/>
<polygon fill="#ffffff" points="261,267 257,263 261,259"/>
<polygon fill="#ffffff" points="261,267 261,259 265,263"/>
<polyline fill="none" stroke="#0000ff" stroke-width="0.5" points="257,263 261,259 265,263 261,267 257,263"/>
<polygon fill="#ffffff" points="276,256 272,252 276,248"/>
<polygon fill="#ffffff" points="276,256 276,248 280,252"/>
<polyline fill="none" stroke="#0000ff" stroke-width="0.5" points="272,252 276,248 280,252 276,256 272,252"/>
<polygon fill="#ffffff" points="293,243 289,239 293,235"/>
<polygon fill="#ffffff" points="293,243 293,235 297,239"/>
<polyline fill="none" stroke="#0000ff" stroke-width="0.5" points="289,239 293,235 297,239 293,243 289,239"/>
<polygon fill="#ffffff" points="312,229 308,225 312,221"/>
<polygon fill="#ffffff" points="312,229 312,221 316,225"/>
<polyline fill="none" stroke="#0000ff" stroke-width="0.5" points="308,225 312,221 316,225 312,229 308,225"/>
<polygon fill="#ffffff" points="321,222 317,218 321,214"/>
<polygon fill="#ffffff" points="321,222 321,214 325,218"/>
<polyline fill="none" stroke="#0000ff" stroke-width="0.5" points="317,218 321,214 325,218 321,222 317,218"/>
<polygon fill="#ffffff" points="331,214 327,210 331,206"/>
<polygon fill="#ffffff" points="331,214 331,206 335,210"/>
<polyline fill="none" stroke="#0000ff" stroke-width="0.5" points="327,210 331,206 335,210 331,214 327,210"/>
<polygon fill="#ffffff" points="342,206 338,202 342,198"/>
<polygon fill="#ffffff" points="342,206 342,198 346,202"/>
<polyline fill="none" stroke="#0000ff" stroke-width="0.5" points="338,202 342,198 346,202 342,206 338,202"/>
<polygon fill="#ffffff" points="355,197 351,193 355,189"/>
<polygon fill="#ffffff" points="355,197 355,189 359,193"/>
<polyline fill="none" stroke="#0000ff" stroke-width="0.5" points="351,193 355,189 359,193 355,197 351,193"/>
<polygon fill="#ffffff" points="368,186 364,182 368,178"/>
<polygon fill="#ffffff" points="368,186 368,178 372,182"/>
<polyline fill="none" stroke="#0000ff" stroke-width="0.5" points="364,182 368,178 372,182 368,186 364,182"/>
<polygon fill="#ffffff" points="383,175 379,171 383,167"/>
<polygon fill="#ffffff" points="383,175 383,167 387,171"/>
<polyline fill="none" stroke="#0000ff" stroke-width="0.5" points="379,171 383,167 387,171 383,175 379,171"/>
<polygon fill="#ffffff" points="400,163 396,159 400,155"/>
<polygon fill="#ffffff" points="400,163 400,155 404,159"/>
<polyline fill="none" stroke="#0000ff" stroke-width="0.5" points="396,159 400,155 404,159 400,163 396,159"/>
<polygon fill="#ffffff" points="418,149 414,145 418,141"/>
<polygon fill="#ffffff" points="418,149 418,141 422,145"/>
<polyline fill="none" stroke="#0000ff" stroke-width="0.5" points="414,145 418,141 422,145 418,149 414,145"/>
<polygon fill="#ffffff" points="438,134 434,130 438,126"/>
<polygon fill="#ffffff" points="438,134 438,126 442,130"/>
<polyline fill="none" stroke="#0000ff" stroke-width="0.5" points="434,130 438,126 442,130 438,134 434,130"/>
<polygon fill="#ffffff" points="447,127 443,123 447,119"/>
<polygon fill="#ffffff" points="447,127 447,119 451,123"/>
<polyline fill="none" stroke="#0000ff" stroke-width="0.5" points="443,123 447,119 451,123 447,127 443,123"/>
<polygon fill="#ffffff" points="458,118 454,114 458,110"/>
<polygon fill="#ffffff" points="458,118 458,110 462,114"/>
<polyline fill="none" stroke="#0000ff" stroke-width="0.5" points="454,114 458,110 462,114 458,118 454,114"/>
<polygon fill="#ffffff" points="470,109 466,105 470,101"/>
<polygon fill="#ffffff" points="470,109 470,101 474,105"/>
<polyline fill="none" stroke="#0000ff" stroke-width="0.5" points="466,105 470,101 474,105 470,109 466,105"/>
<polygon fill="#ffffff" points="484,99 480,95 484,91"/>
<polygon fill="#ffffff" points="484,99 484,91 488,95"/>
<polyline fill="none" stroke="#0000ff" stroke-width="0.5" points="480,95 484,91 488,95 484,99 480,95"/>
<polygon fill="#ffffff" points="498,88 494,84 498,80"/>
<polygon fill="#ffffff" points="498,88 498,80 502,84"/>
<polyline fill="none" stroke="#0000ff" stroke-width="0.5" points="494,84 498,80 502,84 498,88 494,84"/>
<polygon fill="#ffffff" points="514,76 510,72 514,68"/>
<polygon fill="#ffffff" points="514,76 514,68 518,72"/>
<polyline fill="none" stroke="#0000ff" stroke-width="0.5" points="510,72 514,68 518,72 514,76 510,72"/>
<polygon fill="#ffffff" points="532,63 528,59 529.503,57.4966"/>
<polygon fill="#ffffff" points="532,63 529.503,57.4966 533.755,57.4966"/>
<polygon fill="#ffffff" points="532,63 533.755,57.4966 533.755,61.2454"/>
<polyline fill="none" stroke="#0000ff" stroke-width="0.5" points="528,59 529.503,57.4966"/>
<polyline fill="none" stroke="#0000ff" stroke-width="0.5" points="533.755,61.2454 532,63 528,59"/>
<polyline fill="none" stroke="#000000" stroke-width="0.5" points="76.25,402.5 76.25,57.5"/>
<polyline fill="none" stroke="#000000" stroke-width="0.5" points="76.25,402.5 69.395,402.5"/>
<polyline fill="none" stroke="#000000" stroke-width="0.5" points="76.25,359.375 69.395,359.375"/>
<polyline fill="none" stroke="#000000" stroke-width="0.5" points="76.25,316.25 69.395,316.25"/>
<polyline fill="none" stroke="#000000" stroke-width="0.5" points="76.25,273.125 69.395,273.125"/>
<polyline fill="none" stroke="#000000" stroke-width="0.5" points="76.25,230 69.395,230"/>
<polyline fill="none" stroke="#000000" stroke-width="0.5" points="76.25,186.875 69.395,186.875"/>
<polyline fill="none" stroke="#000000" stroke-width="0.5" points="76.25,143.75 69.395,143.75"/>
<polyline fill="none" stroke="#000000" stroke-width="0.5" points="76.25,100.625 69.395,100.625"/>
<polyline fill="none" stroke="#000000" stroke-width="0.5" points="76.25,57.5 69.395,57.5"/>
<polyline fill="none" stroke="#000000" stroke-width="0.5" points="76.25,380.938 72.137,380.938"/>
<polyline fill="none" stroke="#000000" stroke-width="0.5" points="76.25,337.812 72.137,337.812"/>
<polyline fill="none" stroke="#000000" stroke-width="0.5" points="76.25,294.688 72.137,294.688"/>
<polyline fill="none" stroke="#000000" stroke-width="0.5" points="76.25,251.562 72.137,251.562"/>
<polyline fill="none" stroke="#000000" stroke-width="0.5" points="76.25,208.437 72.137,208.437"/>
<polyline fill="none" stroke="#000000" stroke-width="0.5" points="76.25,165.312 72.137,165.312"/>
<polyline fill="none" stroke="#000000" stroke-width="0.5" points="76.25,122.188 72.137,122.188"/>
<polyline fill="none" stroke="#000000" stroke-width="0.5" points="76.25,79.0625 72.137,79.0625"/>
<text fill="#000000" style="stroke:none" x="60" y="407" transform="rotate(-0, 60, 407)" font-size="10" font-family="SansSerif" font-style="normal" font-weight="normal">0</text>
<text fill="#000000" style="stroke:none" x="61" y="364" transform="rotate(-0, 61, 364)" font-size="10" font-family="SansSerif" font-style="normal" font-weight="normal">2</text>
<text fill="#000000" style="stroke:none" x="60" y="321" transform="rotate(-0, 60, 321)" font-size="10" font-family="SansSerif" font-style="normal" font-weight="normal">4</text>
<text fill="#000000" style="stroke:none" x="61" y="278" transform="rotate(-0, 61, 278)" font-size="10" font-family="SansSerif" font-style="normal" font-weight="normal">6</text>
<text fill="#000000" style="stroke:none" x="61" y="235" transform="rotate(-0, 61, 235)" font-size="10" font-family="SansSerif" font-style="normal" font-weight="normal">8</text>
<text fill="#000000" style="stroke:none" x="55" y="192" transform="rotate(-0, 55, 192)" font-size="10" font-family="SansSerif" font-style="normal" font-weight="normal">10</text>
<text fill="#000000" style="stroke:none" x="56" y="149" transform="rotate(-0, 56, 149)" font-size="10" font-family="SansSerif" font-style="normal" font-weight="normal">12</text>
<text fill="#000000" style="stroke:none" x="55" y="106" transform="rotate(-0, 55, 106)" font-size="10" font-family="SansSerif" font-style="normal" font-weight="normal">14</text>
<text fill="#000000" style="stroke:none" x="55" y="62" transform="rotate(-0, 55, 62)" font-size="10" font-family="SansSerif" font-style="normal" font-weight="normal">16</text>
<polyline fill="none" stroke="#000000" stroke-width="0.5" points="76.25,402.5 533.75,402.5"/>
<polyline fill="none" stroke="#000000" stroke-width="0.5" points="76.25,402.5 76.25,407.675"/>
<polyline fill="none" stroke="#000000" stroke-width="0.5" points="133.438,402.5 133.438,407.675"/>
<polyline fill="none" stroke="#000000" stroke-width="0.5" points="190.625,402.5 190.625,407.675"/>
<polyline fill="none" stroke="#000000" stroke-width="0.5" points="247.812,402.5 247.812,407.675"/>
<polyline fill="none" stroke="#000000" stroke-width="0.5" points="305,402.5 305,407.675"/>
<polyline fill="none" stroke="#000000" stroke-width="0.5" points="362.188,402.5 362.188,407.675"/>
<polyline fill="none" stroke="#000000" stroke-width="0.5" points="419.375,402.5 419.375,407.675"/>
<polyline fill="none" stroke="#000000" stroke-width="0.5" points="476.562,402.5 476.562,407.675"/>
<polyline fill="none" stroke="#000000" stroke-width="0.5" points="533.75,402.5 533.75,407.675"/>
<polyline fill="none" stroke="#000000" stroke-width="0.5" points="104.844,402.5 104.844,405.605"/>
<polyline fill="none" stroke="#000000" stroke-width="0.5" points="162.031,402.5 162.031,405.605"/>
<polyline fill="none" stroke="#000000" stroke-width="0.5" points="219.219,402.5 219.219,405.605"/>
<polyline fill="none" stroke="#000000" stroke-width="0.5" points="276.406,402.5 276.406,405.605"/>
<polyline fill="none" stroke="#000000" stroke-width="0.5" points="333.594,402.5 333.594,405.605"/>
<polyline fill="none" stroke="#000000" stroke-width="0.5" points="390.781,402.5 390.781,405.605"/>
<polyline fill="none" stroke="#000000" stroke-width="0.5" points="447.969,402.5 447.969,405.605"/>
<polyline fill="none" stroke="#000000" stroke-width="0.5" points="505.156,402.5 505.156,405.605"/>
<text fill="#000000" style="stroke:none" x="72" y="419" transform="rotate(-0, 72, 419)" font-size="10" font-family="SansSerif" font-style="normal" font-weight="normal">0</text>
<text fill="#000000" style="stroke:none" x="130" y="419" transform="rotate(-0, 130, 419)" font-size="10" font-family="SansSerif" font-style="normal" font-weight="normal">2</text>
<text fill="#000000" style="stroke:none" x="187" y="419" transform="rotate(-0, 187, 419)" font-size="10" font-family="SansSerif" font-style="normal" font-weight="normal">4</text>
<text fill="#000000" style="stroke:none" x="244" y="419" transform="rotate(-0, 244, 419)" font-size="10" font-family="SansSerif" font-style="normal" font-weight="normal">6</text>
<text fill="#000000" style="stroke:none" x="302" y="419" transform="rotate(-0, 302, 419)" font-size="10" font-family="SansSerif" font-style="normal" font-weight="normal">8</text>
<text fill="#000000" style="stroke:none" x="356" y="419" transform="rotate(-0, 356, 419)" font-size="10" font-family="SansSerif" font-style="normal" font-weight="normal">10</text>
<text fill="#000000" style="stroke:none" x="413" y="419" transform="rotate(-0, 413, 419)" font-size="10" font-family="SansSerif" font-style="normal" font-weight="normal">12</text>
<text fill="#000000" style="stroke:none" x="470" y="419" transform="rotate(-0, 470, 419)" font-size="10" font-family="SansSerif" font-style="normal" font-weight="normal">14</text>
<text fill="#000000" style="stroke:none" x="527" y="419" transform="rotate(-0, 527, 419)" font-size="10" font-family="SansSerif" font-style="normal" font-weight="normal">16</text>
</g>
</svg>
