<?xml version="1.0" encoding="UTF-8" standalone="no"?>
<svg xmlns="http://www.w3.org/2000/svg"
     xmlns:xlink="http://www.w3.org/1999/xlink"
     width="610px" height="410px" viewBox="0 0 610 410"
     style="stroke:none">
<title>Graphic window number 0</title>
<desc>
Creator: GL2PS 1.3.2, (C) 1999-2006 Christophe Geuzaine (geuz@geuz.org)
For: Scilab
CreationDate: Mon May 14 03:09:06 2012
</desc>
<defs>
</defs>
<polygon fill="#ffffff" points="0,0 610,0 610,410 0,410"/>
<g>
<polygon fill="#ffffff" points="76.25,358.75 76.25,358.75 76.25,51.25"/>
<polygon fill="#ffffff" points="76.25,358.75 76.25,51.25 76.25,51.25"/>
<polygon fill="#ffffff" points="76.25,358.75 76.25,358.75 533.75,358.75"/>
<polygon fill="#ffffff" points="76.25,358.75 533.75,358.75 533.75,358.75"/>
<polygon fill="#ffffff" points="76.25,51.25 76.25,358.75 533.75,358.75"/>
<polygon fill="#ffffff" points="76.25,51.25 533.75,358.75 533.75,51.25"/>
<polyline fill="none" stroke="#000000" stroke-width="0.5" points="76.25,358.75 76.25,51.25 76.25,51.25 533.75,51.25 533.75,358.75 533.75,358.75 76.25,358.75"/>
<polyline fill="none" stroke="#000000" stroke-width="0.5" points="533.75,51.25 76.25,51.25"/>
<polyline fill="none" stroke="#000000" stroke-width="0.5" points="533.75,51.25 533.75,358.75"/>
<polyline fill="none" stroke="#000000" stroke-width="0.5" points="533.75,51.25 533.75,51.25"/>
<polyline fill="none" stroke="#ff0000" stroke-width="0.5" points="76.25,205 76.555,205 76.86,205 77.165,205 77.47,205 77.775,205 78.08,205 78.385,205 78.69,205 78.995,205 79.3,205 79.605,205 79.91,205 80.215,205 80.52,205 80.825,205 81.13,205 81.435,205 81.74,205 82.045,205 82.35,205 82.655,205 82.96,205 83.265,205 83.57,205 83.875,205 84.18,205 84.485,205 84.79,205 85.095,205 85.4,205 85.705,205 86.01,205 86.315,205 86.62,205 86.925,205 87.23,205 87.535,205 87.84,205 88.145,205 88.45,205 88.755,205 89.06,205 89.365,205 89.67,205 89.975,205 90.28,205 90.585,205 90.89,205 91.195,205 91.5,205 91.805,205 92.11,205 92.415,205 92.72,205 93.025,205 93.33,205 93.635,205 93.94,205 94.245,205 94.55,205 94.855,205 95.16,205 95.465,205 95.77,205 96.075,205 96.38,205 96.685,205 96.99,205 97.295,205 97.6,205 97.905,205 98.21,205 98.515,205 98.82,205 99.125,205 99.43,205 99.735,205 100.04,205 100.345,205 100.65,205 100.955,205 101.26,205 101.565,205 101.87,205 102.175,205 102.48,205 102.785,205 103.09,205 103.395,205 103.7,205 104.005,205 104.31,205 104.615,205 104.92,205 105.225,205 105.53,205 105.835,205 106.14,205 106.445,205 106.75,205 107.055,205 107.36,205 107.665,205 107.97,205 108.275,205 108.58,205 108.885,205 109.19,205 109.495,205 109.8,205 110.105,205 110.41,205 110.715,205 111.02,205 111.325,205 111.63,205 111.935,205 112.24,205 112.545,205 112.85,205 113.155,205 113.46,205 113.765,205 114.07,205 114.375,205 114.68,205 114.985,205 115.29,205 115.595,205 115.9,205 116.205,205 116.51,205 116.815,205 117.12,205 117.425,205 117.73,205 118.035,205 118.34,205 118.645,205 118.95,205 119.255,205 119.56,205 119.865,205 120.17,205 120.475,205 120.78,205 121.085,205 121.39,205 121.695,205 122,205 122.305,205 122.61,205 122.915,205 123.22,205 123.525,205 123.83,205 124.135,205 124.44,205 124.745,205 125.05,205 125.355,205 125.66,205 125.965,205 126.27,205 126.575,205 126.88,205 127.185,205 127.49,205 127.795,205 128.1,205 128.405,205 128.71,205 129.015,205 129.32,205 129.625,205 129.93,205 130.235,205 130.54,205 130.845,205 131.15,205 131.455,205 131.76,205 132.065,205 132.37,205 132.675,205 132.98,205 133.285,205 133.59,205 133.895,205 134.2,205 134.505,205 134.81,205 135.115,205 135.42,205 135.725,205 136.03,205 136.335,205 136.64,205 136.945,205 137.25,205 137.555,205 137.86,205 138.165,205 138.47,205 138.775,205 139.08,205 139.385,205 139.69,205 139.995,205 140.3,205 140.605,205 140.91,205 141.215,205 141.52,205 141.825,205 142.13,205 142.435,205 142.74,205 143.045,205 143.35,205 143.655,205 143.96,205 144.265,205 144.57,205 144.875,205 145.18,205 145.485,205 145.79,205 146.095,205 146.4,205 146.705,205 147.01,205 147.315,205 147.62,205 147.925,205 148.23,205 148.535,205 148.84,205 149.145,205 149.45,205 149.755,205 150.06,205 150.365,205 150.67,205 150.975,205 151.28,205 151.585,205 151.89,205 152.195,205 152.5,205 152.805,205 153.11,205 153.415,205 153.72,205 154.025,205 154.33,205 154.635,205 154.94,205 155.245,205 155.55,205 155.855,205 156.16,205 156.465,205 156.77,205 157.075,205 157.38,205 157.685,205 157.99,205 158.295,205 158.6,205 158.905,205 159.21,205 159.515,205 159.82,205 160.125,205 160.43,205 160.735,205 161.04,205 161.345,205 161.65,205 161.955,205 162.26,205 162.565,205 162.87,205 163.175,205 163.48,205 163.785,205 164.09,205 164.395,205 164.7,205 165.005,205 165.31,205 165.615,205 165.92,205 166.225,205 166.53,205 166.835,205 167.14,205 167.445,205 167.75,205 168.055,205 168.36,205 168.665,205 168.97,205 169.275,205 169.58,205 169.885,205 170.19,205 170.495,205 170.8,205 171.105,205 171.41,205 171.715,205 172.02,205 172.325,205 172.63,205 172.935,205 173.24,205 173.545,205 173.85,205 174.155,205 174.46,205 174.765,205 175.07,205 175.375,205 175.68,205 175.985,205 176.29,205 176.595,205 176.9,205 177.205,205 177.51,205 177.815,205 178.12,205 178.425,205 178.73,205 179.035,205 179.34,205 179.645,205 179.95,205 180.255,205 180.56,205 180.865,205 181.17,205 181.475,205 181.78,205 182.085,205 182.39,205 182.695,205 183,205 183.305,205 183.61,205 183.915,205 184.22,205 184.525,205 184.83,205 185.135,205 185.44,205 185.745,205 186.05,205 186.355,205 186.66,205 186.965,205 187.27,205 187.575,205 187.88,205 188.185,205 188.49,205 188.795,205 189.1,205 189.405,205 189.71,205 190.015,205 190.32,205 190.625,205 190.93,205 191.235,205 191.54,205 191.845,205 192.15,205 192.455,205 192.76,205 193.065,205 193.37,205 193.675,205 193.98,205 194.285,205 194.59,205 194.895,205 195.2,205 195.505,205 195.81,205 196.115,205 196.42,205 196.725,205 197.03,205 197.335,205 197.64,205 197.945,205 198.25,205 198.555,205 198.86,205 199.165,205 199.47,205 199.775,205 200.08,205 200.385,205 200.69,205 200.995,205 201.3,205 201.605,205 201.91,205 202.215,205 202.52,205 202.825,205 203.13,205 203.435,205 203.74,205 204.045,205 204.35,205 204.655,205 204.96,205 205.265,205 205.57,205 205.875,205 206.18,205 206.485,205 206.79,205 207.095,205 207.4,205 207.705,205 208.01,205 208.315,205 208.62,205 208.925,205 209.23,205 209.535,205 209.84,205 210.145,205 210.45,205 210.755,205 211.06,205 211.365,205 211.67,205 211.975,205 212.28,205 212.585,205 212.89,205 213.195,205 213.5,205 213.805,205 214.11,205 214.415,205 214.72,205 215.025,205 215.33,205 215.635,205 215.94,205 216.245,205 216.55,205 216.855,205 217.16,205 217.465,205 217.77,205 218.075,205 218.38,205 218.685,205 218.99,205 219.295,205 219.6,205 219.905,205 220.21,205 220.515,205 220.82,205 221.125,205 221.43,205 221.735,205 222.04,205 222.345,205 222.65,205 222.955,205 223.26,205 223.565,205 223.87,205 224.175,205 224.48,205 224.785,205 225.09,205 225.395,205 225.7,205 226.005,205 226.31,205 226.615,205 226.92,205 227.225,205 227.53,205 227.835,205 228.14,205 228.445,205 228.75,205 229.055,205 229.36,205 229.665,205 229.97,205 230.275,205 230.58,205 230.885,205 231.19,205 231.495,205 231.8,205 232.105,205 232.41,205 232.715,205 233.02,205 233.325,205 233.63,205 233.935,205 234.24,205 234.545,205 234.85,205 235.155,205 235.46,205 235.765,205 236.07,205 236.375,205 236.68,205 236.985,205 237.29,205 237.595,205 237.9,205 238.205,205 238.51,205 238.815,205 239.12,205 239.425,205 239.73,205 240.035,205 240.34,205 240.645,205 240.95,205 241.255,205 241.56,205 241.865,205 242.17,205 242.475,205 242.78,205 243.085,205 243.39,205 243.695,205 244,205 244.305,205 244.61,205 244.915,205 245.22,205 245.525,205 245.83,205 246.135,205 246.44,205 246.745,205 247.05,205 247.355,205 247.66,205 247.965,205 248.27,205 248.575,205 248.88,205 249.185,205 249.49,205 249.795,205 250.1,205 250.405,205 250.71,205 251.015,205 251.32,205 251.625,205 251.93,205 252.235,205 252.54,205 252.845,205 253.15,205 253.455,205 253.76,205 254.065,205 254.37,205 254.675,205 254.98,205 255.285,205 255.59,205 255.895,205 256.2,205 256.505,205 256.81,205 257.115,205 257.42,205 257.725,205 258.03,205 258.335,205 258.64,205 258.945,205 259.25,205 259.555,205 259.86,205 260.165,205 260.47,205 260.775,205 261.08,205 261.385,205 261.69,205 261.995,205 262.3,205 262.605,205 262.91,205 263.215,205 263.52,205 263.825,205 264.13,205 264.435,205 264.74,205 265.045,205 265.35,205 265.655,205 265.96,205 266.265,205 266.57,205 266.875,205 267.18,205 267.485,205 267.79,205 268.095,205 268.4,205 268.705,205 269.01,205 269.315,205 269.62,205 269.925,205 270.23,205 270.535,205 270.84,205 271.145,205 271.45,205 271.755,205 272.06,205 272.365,205 272.67,205 272.975,205 273.28,205 273.585,205 273.89,205 274.195,205 274.5,205 274.805,205 275.11,205 275.415,205 275.72,205 276.025,205 276.33,205 276.635,205 276.94,205 277.245,205 277.55,205 277.855,205 278.16,205 278.465,205 278.77,205 279.075,205 279.38,205 279.685,205 279.99,205 280.295,205 280.6,205 280.905,205 281.21,205 281.515,205 281.82,205 282.125,205 282.43,205 282.735,205 283.04,205 283.345,205 283.65,205 283.955,205 284.26,205 284.565,205 284.87,205 285.175,205 285.48,205 285.785,205 286.09,205 286.395,205 286.7,205 287.005,205 287.31,205 287.615,205 287.92,205 288.225,205 288.53,205 288.835,205 289.14,205 289.445,205 289.75,205 290.055,205 290.36,205 290.665,205 290.97,205 291.275,205 291.58,205 291.885,205 292.19,205 292.495,205 292.8,205 293.105,205 293.41,205 293.715,205 294.02,205 294.325,205 294.63,205 294.935,205 295.24,205 295.545,205 295.85,205 296.155,205 296.46,205 296.765,205 297.07,205 297.375,205 297.68,205 297.985,205 298.29,205 298.595,205 298.9,205 299.205,205 299.51,205 299.815,205 300.12,205 300.425,205 300.73,205 301.035,205 301.34,205 301.645,205 301.95,205 302.255,205 302.56,205 302.865,205 303.17,205 303.475,205 303.78,205 304.085,205 304.39,205 304.695,205 305,205 305.305,205 305.61,205 305.915,205 306.22,205 306.525,205 306.83,205 307.135,205 307.44,205 307.745,205 308.05,205 308.355,205 308.66,205 308.965,205 309.27,205 309.575,205 309.88,205 310.185,205 310.49,205 310.795,205 311.1,205 311.405,205 311.71,205 312.015,205 312.32,205 312.625,205 312.93,205 313.235,205 313.54,205 313.845,205 314.15,205 314.455,205 314.76,205 315.065,205 315.37,205 315.675,205 315.98,205 316.285,205 316.59,205 316.895,205 317.2,205 317.505,205 317.81,205 318.115,205 318.42,205 318.725,205 319.03,205 319.335,205 319.64,205 319.945,205 320.25,205 320.555,205 320.86,205 321.165,205 321.47,205 321.775,205 322.08,205 322.385,205 322.69,205 322.995,205 323.3,205 323.605,205 323.91,205 324.215,205 324.52,205 324.825,205 325.13,205 325.435,205 325.74,205 326.045,205 326.35,205 326.655,205 326.96,205 327.265,205 327.57,205 327.875,205 328.18,205 328.485,205 328.79,205 329.095,205 329.4,205 329.705,205 330.01,205 330.315,205 330.62,205 330.925,205 331.23,205 331.535,205 331.84,205 332.145,205 332.45,205 332.755,205 333.06,205 333.365,205 333.67,205 333.975,205 334.28,205 334.585,205 334.89,205 335.195,205 335.5,205 335.805,205 336.11,205 336.415,205 336.72,205 337.025,205 337.33,205 337.635,205 337.94,205 338.245,205 338.55,205 338.855,205 339.16,205 339.465,205 339.77,205 340.075,205 340.38,205 340.685,205 340.99,205 341.295,205 341.6,205 341.905,205 342.21,205 342.515,205 342.82,205 343.125,205 343.43,205 343.735,205 344.04,205 344.345,205 344.65,205 344.955,205 345.26,205 345.565,205 345.87,205 346.175,205 346.48,205 346.785,205 347.09,205 347.395,205 347.7,205 348.005,205 348.31,205 348.615,205 348.92,205 349.225,205 349.53,205 349.835,205 350.14,205 350.445,205 350.75,205 351.055,205 351.36,205 351.665,205 351.97,205 352.275,205 352.58,205 352.885,205 353.19,205 353.495,205 353.8,205 354.105,205 354.41,205 354.715,205 355.02,205 355.325,205 355.63,205 355.935,205 356.24,205 356.545,205 356.85,205 357.155,205 357.46,205 357.765,205 358.07,205 358.375,205 358.68,205 358.985,205 359.29,205 359.595,205 359.9,205 360.205,205 360.51,205 360.815,205 361.12,205 361.425,205 361.73,205 362.035,205 362.34,205 362.645,205 362.95,205 363.255,205 363.56,205 363.865,205 364.17,205 364.475,205 364.78,205 365.085,205 365.39,205 365.695,205 366,205 366.305,205 366.61,205 366.915,205 367.22,205 367.525,205 367.83,205 368.135,205 368.44,205 368.745,205 369.05,205 369.355,205 369.66,205 369.965,205 370.27,205 370.575,205 370.88,205 371.185,205 371.49,205 371.795,205 372.1,205 372.405,205 372.71,205 373.015,205 373.32,205 373.625,205 373.93,205 374.235,205 374.54,205 374.845,205 375.15,205 375.455,205 375.76,205 376.065,205 376.37,205 376.675,205 376.98,205 377.285,205 377.59,205 377.895,205 378.2,205 378.505,205 378.81,205 379.115,205 379.42,205 379.725,205 380.03,205 380.335,205 380.64,205 380.945,205 381.25,205 381.555,205 381.86,205 382.165,205 382.47,205 382.775,205 383.08,205 383.385,205 383.69,205 383.995,205 384.3,205 384.605,205 384.91,205 385.215,205 385.52,205 385.825,205 386.13,205 386.435,205 386.74,205 387.045,205 387.35,205 387.655,205 387.96,205 388.265,205 388.57,205 388.875,205 389.18,205 389.485,205 389.79,205 390.095,205 390.4,205 390.705,205 391.01,205 391.315,205 391.62,205 391.925,205 392.23,205 392.535,205 392.84,205 393.145,205 393.45,205 393.755,205 394.06,205 394.365,205 394.67,205 394.975,205 395.28,205 395.585,205 395.89,205 396.195,205 396.5,205 396.805,205 397.11,205 397.415,205 397.72,205 398.025,205 398.33,205 398.635,205 398.94,205 399.245,205 399.55,205 399.855,205 400.16,205 400.465,205 400.77,205 401.075,205 401.38,205 401.685,205 401.99,205 402.295,205 402.6,205 402.905,205 403.21,205 403.515,205 403.82,205 404.125,205 404.43,205 404.735,205 405.04,205 405.345,205 405.65,205 405.955,205 406.26,205 406.565,205 406.87,205 407.175,205 407.48,205 407.785,205 408.09,205 408.395,205 408.7,205 409.005,205 409.31,205 409.615,205 409.92,205 410.225,205 410.53,205 410.835,205 411.14,205 411.445,205 411.75,205 412.055,205 412.36,205 412.665,205 412.97,205 413.275,205 413.58,205 413.885,205 414.19,205 414.495,205 414.8,205 415.105,205 415.41,205 415.715,205 416.02,205 416.325,205 416.63,205 416.935,205 417.24,205 417.545,205 417.85,205 418.155,205 418.46,205 418.765,205 419.07,205 419.375,205 419.68,205 419.985,205 420.29,205 420.595,205 420.9,205 421.205,205 421.51,205 421.815,205 422.12,205 422.425,205 422.73,205 423.035,205 423.34,205 423.645,205 423.95,205 424.255,205 424.56,205 424.865,205 425.17,205 425.475,205 425.78,205 426.085,205 426.39,205 426.695,205 427,205 427.305,205 427.61,205 427.915,205 428.22,205 428.525,205 428.83,205 429.135,205 429.44,205 429.745,205 430.05,205 430.355,205 430.66,205 430.965,205 431.27,205 431.575,205 431.88,205 432.185,205 432.49,205 432.795,205 433.1,205 433.405,205 433.71,205 434.015,205 434.32,205 434.625,205 434.93,205 435.235,205 435.54,205 435.845,205 436.15,205 436.455,205 436.76,205 437.065,205 437.37,205 437.675,205 437.98,205 438.285,205 438.59,205 438.895,205 439.2,205 439.505,205 439.81,205 440.115,205 440.42,205 440.725,205 441.03,205 441.335,205 441.64,205 441.945,205 442.25,205 442.555,205 442.86,205 443.165,205 443.47,205 443.775,205 444.08,205 444.385,205 444.69,205 444.995,205 445.3,205 445.605,205 445.91,205 446.215,205 446.52,205 446.825,205 447.13,205 447.435,205 447.74,205 448.045,205 448.35,205 448.655,205 448.96,205 449.265,205 449.57,205 449.875,205 450.18,205 450.485,205 450.79,205 451.095,205 451.4,205 451.705,205 452.01,205 452.315,205 452.62,205 452.925,205 453.23,205 453.535,205 453.84,205 454.145,205 454.45,205 454.755,205 455.06,205 455.365,205 455.67,205 455.975,205 456.28,205 456.585,205 456.89,205 457.195,205 457.5,205 457.805,205 458.11,205 458.415,205 458.72,205 459.025,205 459.33,205 459.635,205 459.94,205 460.245,205 460.55,205 460.855,205 461.16,205 461.465,205 461.77,205 462.075,205 462.38,205 462.685,205 462.99,205 463.295,205 463.6,205 463.905,205 464.21,205 464.515,205 464.82,205 465.125,205 465.43,205 465.735,205 466.04,205 466.345,205 466.65,205 466.955,205 467.26,205 467.565,205 467.87,205 468.175,205 468.48,205 468.785,205 469.09,205 469.395,205 469.7,205 470.005,205 470.31,205 470.615,205 470.92,205 471.225,205 471.53,205 471.835,205 472.14,205 472.445,205 472.75,205 473.055,205 473.36,205 473.665,205 473.97,205 474.275,205 474.58,205 474.885,205 475.19,205 475.495,205 475.8,205 476.105,205 476.41,205 476.715,205 477.02,205 477.325,205 477.63,205 477.935,205 478.24,205 478.545,205 478.85,205 479.155,205 479.46,205 479.765,205 480.07,205 480.375,205 480.68,205 480.985,205 481.29,205 481.595,205 481.9,205 482.205,205 482.51,205 482.815,205 483.12,205 483.425,205 483.73,205 484.035,205 484.34,205 484.645,205 484.95,205 485.255,205 485.56,205 485.865,205 486.17,205 486.475,205 486.78,205 487.085,205 487.39,205 487.695,205 488,205 488.305,205 488.61,205 488.915,205 489.22,205 489.525,205 489.83,205 490.135,205 490.44,205 490.745,205 491.05,205 491.355,205 491.66,205 491.965,205 492.27,205 492.575,205 492.88,205 493.185,205 493.49,205 493.795,205 494.1,205 494.405,205 494.71,205 495.015,205 495.32,205 495.625,205 495.93,205 496.235,205 496.54,205 496.845,205 497.15,205 497.455,205 497.76,205 498.065,205 498.37,205 498.675,205 498.98,205 499.285,205 499.59,205 499.895,205 500.2,205 500.505,205 500.81,205 501.115,205 501.42,205 501.725,205 502.03,205 502.335,205 502.64,205 502.945,205 503.25,205 503.555,205 503.86,205 504.165,205 504.47,205 504.775,205 505.08,205 505.385,205 505.69,205 505.995,205 506.3,205 506.605,205 506.91,205 507.215,205 507.52,205 507.825,205 508.13,205 508.435,205 508.74,205 509.045,205 509.35,205 509.655,205 509.96,205 510.265,205 510.57,205 510.875,205 511.18,205 511.485,205 511.79,205 512.095,205 512.4,205 512.705,205 513.01,205 513.315,205 513.62,205 513.925,205 514.23,205 514.535,205 514.84,205 515.145,205 515.45,205 515.755,205 516.06,205 516.365,205 516.67,205 516.975,205 517.28,205 517.585,205 517.89,205 518.195,205 518.5,205 518.805,205 519.11,205 519.415,205 519.72,205 520.025,205 520.33,205 520.635,205 520.94,205 521.245,205 521.55,205 521.855,205 522.16,205 522.465,205 522.77,205 523.075,205 523.38,205 523.685,205 523.99,205 524.295,205 524.6,205 524.905,205 525.21,205 525.515,205 525.82,205 526.125,205 526.43,205 526.735,205 527.04,205 527.345,205 527.65,205 527.955,205 528.26,205 528.565,205 528.87,205 529.175,205 529.48,205"/>
<polyline fill="none" stroke="#0000ff" stroke-width="0.5" points="76.25,205 79.3,205 82.655,205 86.3455,205 90.4051,205 94.8706,205 99.7826,205 105.186,205 111.129,205 117.667,205 124.859,205 132.77,205 141.472,205 151.044,205 161.574,205 173.156,205 185.897,205 199.911,205 215.327,205 232.285,205 250.939,205 271.458,205 294.028,205 318.856,205 346.167,205 376.209,205 409.254,205 445.605,205 485.59,205 529.574,205"/>
<polygon fill="#ffffff" points="76.2454,201.245 80,205 76.2454,208.755"/>
<polyline fill="none" stroke="#0000ff" stroke-width="0.5" points="76.2454,201.245 80,205 76.2454,208.755"/>
<polygon fill="#ffffff" points="79,209 76.2454,206.245 76.2454,203.755"/>
<polygon fill="#ffffff" points="79,209 76.2454,203.755 79,201"/>
<polygon fill="#ffffff" points="79,209 79,201 83,205"/>
<polyline fill="none" stroke="#0000ff" stroke-width="0.5" points="76.2454,203.755 79,201 83,205 79,209 76.2454,206.245"/>
<polygon fill="#ffffff" points="83,209 79,205 83,201"/>
<polygon fill="#ffffff" points="83,209 83,201 87,205"/>
<polyline fill="none" stroke="#0000ff" stroke-width="0.5" points="79,205 83,201 87,205 83,209 79,205"/>
<polygon fill="#ffffff" points="86,209 82,205 86,201"/>
<polygon fill="#ffffff" points="86,209 86,201 90,205"/>
<polyline fill="none" stroke="#0000ff" stroke-width="0.5" points="82,205 86,201 90,205 86,209 82,205"/>
<polygon fill="#ffffff" points="90,209 86,205 90,201"/>
<polygon fill="#ffffff" points="90,209 90,201 94,205"/>
<polyline fill="none" stroke="#0000ff" stroke-width="0.5" points="86,205 90,201 94,205 90,209 86,205"/>
<polygon fill="#ffffff" points="95,209 91,205 95,201"/>
<polygon fill="#ffffff" points="95,209 95,201 99,205"/>
<polyline fill="none" stroke="#0000ff" stroke-width="0.5" points="91,205 95,201 99,205 95,209 91,205"/>
<polygon fill="#ffffff" points="100,209 96,205 100,201"/>
<polygon fill="#ffffff" points="100,209 100,201 104,205"/>
<polyline fill="none" stroke="#0000ff" stroke-width="0.5" points="96,205 100,201 104,205 100,209 96,205"/>
<polygon fill="#ffffff" points="105,209 101,205 105,201"/>
<polygon fill="#ffffff" points="105,209 105,201 109,205"/>
<polyline fill="none" stroke="#0000ff" stroke-width="0.5" points="101,205 105,201 109,205 105,209 101,205"/>
<polygon fill="#ffffff" points="111,209 107,205 111,201"/>
<polygon fill="#ffffff" points="111,209 111,201 115,205"/>
<polyline fill="none" stroke="#0000ff" stroke-width="0.5" points="107,205 111,201 115,205 111,209 107,205"/>
<polygon fill="#ffffff" points="118,209 114,205 118,201"/>
<polygon fill="#ffffff" points="118,209 118,201 122,205"/>
<polyline fill="none" stroke="#0000ff" stroke-width="0.5" points="114,205 118,201 122,205 118,209 114,205"/>
<polygon fill="#ffffff" points="125,209 121,205 125,201"/>
<polygon fill="#ffffff" points="125,209 125,201 129,205"/>
<polyline fill="none" stroke="#0000ff" stroke-width="0.5" points="121,205 125,201 129,205 125,209 121,205"/>
<polygon fill="#ffffff" points="133,209 129,205 133,201"/>
<polygon fill="#ffffff" points="133,209 133,201 137,205"/>
<polyline fill="none" stroke="#0000ff" stroke-width="0.5" points="129,205 133,201 137,205 133,209 129,205"/>
<polygon fill="#ffffff" points="141,209 137,205 141,201"/>
<polygon fill="#ffffff" points="141,209 141,201 145,205"/>
<polyline fill="none" stroke="#0000ff" stroke-width="0.5" points="137,205 141,201 145,205 141,209 137,205"/>
<polygon fill="#ffffff" points="151,209 147,205 151,201"/>
<polygon fill="#ffffff" points="151,209 151,201 155,205"/>
<polyline fill="none" stroke="#0000ff" stroke-width="0.5" points="147,205 151,201 155,205 151,209 147,205"/>
<polygon fill="#ffffff" points="162,209 158,205 162,201"/>
<polygon fill="#ffffff" points="162,209 162,201 166,205"/>
<polyline fill="none" stroke="#0000ff" stroke-width="0.5" points="158,205 162,201 166,205 162,209 158,205"/>
<polygon fill="#ffffff" points="173,209 169,205 173,201"/>
<polygon fill="#ffffff" points="173,209 173,201 177,205"/>
<polyline fill="none" stroke="#0000ff" stroke-width="0.5" points="169,205 173,201 177,205 173,209 169,205"/>
<polygon fill="#ffffff" points="186,209 182,205 186,201"/>
<polygon fill="#ffffff" points="186,209 186,201 190,205"/>
<polyline fill="none" stroke="#0000ff" stroke-width="0.5" points="182,205 186,201 190,205 186,209 182,205"/>
<polygon fill="#ffffff" points="200,209 196,205 200,201"/>
<polygon fill="#ffffff" points="200,209 200,201 204,205"/>
<polyline fill="none" stroke="#0000ff" stroke-width="0.5" points="196,205 200,201 204,205 200,209 196,205"/>
<polygon fill="#ffffff" points="215,209 211,205 215,201"/>
<polygon fill="#ffffff" points="215,209 215,201 219,205"/>
<polyline fill="none" stroke="#0000ff" stroke-width="0.5" points="211,205 215,201 219,205 215,209 211,205"/>
<polygon fill="#ffffff" points="232,209 228,205 232,201"/>
<polygon fill="#ffffff" points="232,209 232,201 236,205"/>
<polyline fill="none" stroke="#0000ff" stroke-width="0.5" points="228,205 232,201 236,205 232,209 228,205"/>
<polygon fill="#ffffff" points="251,209 247,205 251,201"/>
<polygon fill="#ffffff" points="251,209 251,201 255,205"/>
<polyline fill="none" stroke="#0000ff" stroke-width="0.5" points="247,205 251,201 255,205 251,209 247,205"/>
<polygon fill="#ffffff" points="271,209 267,205 271,201"/>
<polygon fill="#ffffff" points="271,209 271,201 275,205"/>
<polyline fill="none" stroke="#0000ff" stroke-width="0.5" points="267,205 271,201 275,205 271,209 267,205"/>
<polygon fill="#ffffff" points="294,209 290,205 294,201"/>
<polygon fill="#ffffff" points="294,209 294,201 298,205"/>
<polyline fill="none" stroke="#0000ff" stroke-width="0.5" points="290,205 294,201 298,205 294,209 290,205"/>
<polygon fill="#ffffff" points="319,209 315,205 319,201"/>
<polygon fill="#ffffff" points="319,209 319,201 323,205"/>
<polyline fill="none" stroke="#0000ff" stroke-width="0.5" points="315,205 319,201 323,205 319,209 315,205"/>
<polygon fill="#ffffff" points="346,209 342,205 346,201"/>
<polygon fill="#ffffff" points="346,209 346,201 350,205"/>
<polyline fill="none" stroke="#0000ff" stroke-width="0.5" points="342,205 346,201 350,205 346,209 342,205"/>
<polygon fill="#ffffff" points="376,209 372,205 376,201"/>
<polygon fill="#ffffff" points="376,209 376,201 380,205"/>
<polyline fill="none" stroke="#0000ff" stroke-width="0.5" points="372,205 376,201 380,205 376,209 372,205"/>
<polygon fill="#ffffff" points="409,209 405,205 409,201"/>
<polygon fill="#ffffff" points="409,209 409,201 413,205"/>
<polyline fill="none" stroke="#0000ff" stroke-width="0.5" points="405,205 409,201 413,205 409,209 405,205"/>
<polygon fill="#ffffff" points="446,209 442,205 446,201"/>
<polygon fill="#ffffff" points="446,209 446,201 450,205"/>
<polyline fill="none" stroke="#0000ff" stroke-width="0.5" points="442,205 446,201 450,205 446,209 442,205"/>
<polygon fill="#ffffff" points="486,209 482,205 486,201"/>
<polygon fill="#ffffff" points="486,209 486,201 490,205"/>
<polyline fill="none" stroke="#0000ff" stroke-width="0.5" points="482,205 486,201 490,205 486,209 482,205"/>
<polygon fill="#ffffff" points="530,209 526,205 530,201"/>
<polygon fill="#ffffff" points="530,209 530,201 533.755,204.755"/>
<polygon fill="#ffffff" points="530,209 533.755,204.755 533.755,205.245"/>
<polyline fill="none" stroke="#0000ff" stroke-width="0.5" points="526,205 530,201 533.755,204.755"/>
<polyline fill="none" stroke="#0000ff" stroke-width="0.5" points="533.755,205.245 530,209 526,205"/>
<polyline fill="none" stroke="#000000" stroke-width="0.5" points="76.25,358.75 76.25,51.25"/>
<polyline fill="none" stroke="#000000" stroke-width="0.5" points="76.25,358.75 69.395,358.75"/>
<polyline fill="none" stroke="#000000" stroke-width="0.5" points="76.25,328 69.395,328"/>
<polyline fill="none" stroke="#000000" stroke-width="0.5" points="76.25,297.25 69.395,297.25"/>
<polyline fill="none" stroke="#000000" stroke-width="0.5" points="76.25,266.5 69.395,266.5"/>
<polyline fill="none" stroke="#000000" stroke-width="0.5" points="76.25,235.75 69.395,235.75"/>
<polyline fill="none" stroke="#000000" stroke-width="0.5" points="76.25,205 69.395,205"/>
<polyline fill="none" stroke="#000000" stroke-width="0.5" points="76.25,174.25 69.395,174.25"/>
<polyline fill="none" stroke="#000000" stroke-width="0.5" points="76.25,143.5 69.395,143.5"/>
<polyline fill="none" stroke="#000000" stroke-width="0.5" points="76.25,112.75 69.395,112.75"/>
<polyline fill="none" stroke="#000000" stroke-width="0.5" points="76.25,82 69.395,82"/>
<polyline fill="none" stroke="#000000" stroke-width="0.5" points="76.25,51.25 69.395,51.25"/>
<polyline fill="none" stroke="#000000" stroke-width="0.5" points="76.25,343.375 72.137,343.375"/>
<polyline fill="none" stroke="#000000" stroke-width="0.5" points="76.25,312.625 72.137,312.625"/>
<polyline fill="none" stroke="#000000" stroke-width="0.5" points="76.25,281.875 72.137,281.875"/>
<polyline fill="none" stroke="#000000" stroke-width="0.5" points="76.25,251.125 72.137,251.125"/>
<polyline fill="none" stroke="#000000" stroke-width="0.5" points="76.25,220.375 72.137,220.375"/>
<polyline fill="none" stroke="#000000" stroke-width="0.5" points="76.25,189.625 72.137,189.625"/>
<polyline fill="none" stroke="#000000" stroke-width="0.5" points="76.25,158.875 72.137,158.875"/>
<polyline fill="none" stroke="#000000" stroke-width="0.5" points="76.25,128.125 72.137,128.125"/>
<polyline fill="none" stroke="#000000" stroke-width="0.5" points="76.25,97.375 72.137,97.375"/>
<polyline fill="none" stroke="#000000" stroke-width="0.5" points="76.25,66.625 72.137,66.625"/>
<text fill="#000000" style="stroke:none" x="52" y="364" transform="rotate(-0, 52, 364)" font-size="10" font-family="SansSerif" font-style="normal" font-weight="normal">2.0</text>
<text fill="#000000" style="stroke:none" x="52" y="333" transform="rotate(-0, 52, 333)" font-size="10" font-family="SansSerif" font-style="normal" font-weight="normal">2.2</text>
<text fill="#000000" style="stroke:none" x="52" y="302" transform="rotate(-0, 52, 302)" font-size="10" font-family="SansSerif" font-style="normal" font-weight="normal">2.4</text>
<text fill="#000000" style="stroke:none" x="52" y="271" transform="rotate(-0, 52, 271)" font-size="10" font-family="SansSerif" font-style="normal" font-weight="normal">2.6</text>
<text fill="#000000" style="stroke:none" x="52" y="241" transform="rotate(-0, 52, 241)" font-size="10" font-family="SansSerif" font-style="normal" font-weight="normal">2.8</text>
<text fill="#000000" style="stroke:none" x="52" y="210" transform="rotate(-0, 52, 210)" font-size="10" font-family="SansSerif" font-style="normal" font-weight="normal">3.0</text>
<text fill="#000000" style="stroke:none" x="52" y="179" transform="rotate(-0, 52, 179)" font-size="10" font-family="SansSerif" font-style="normal" font-weight="normal">3.2</text>
<text fill="#000000" style="stroke:none" x="52" y="148" transform="rotate(-0, 52, 148)" font-size="10" font-family="SansSerif" font-style="normal" font-weight="normal">3.4</text>
<text fill="#000000" style="stroke:none" x="52" y="118" transform="rotate(-0, 52, 118)" font-size="10" font-family="SansSerif" font-style="normal" font-weight="normal">3.6</text>
<text fill="#000000" style="stroke:none" x="52" y="87" transform="rotate(-0, 52, 87)" font-size="10" font-family="SansSerif" font-style="normal" font-weight="normal">3.8</text>
<text fill="#000000" style="stroke:none" x="51" y="56" transform="rotate(-0, 51, 56)" font-size="10" font-family="SansSerif" font-style="normal" font-weight="normal">4.0</text>
<polyline fill="none" stroke="#000000" stroke-width="0.5" points="76.25,358.75 533.75,358.75"/>
<polyline fill="none" stroke="#000000" stroke-width="0.5" points="76.25,358.75 76.25,363.355"/>
<polyline fill="none" stroke="#000000" stroke-width="0.5" points="228.75,358.75 228.75,363.355"/>
<polyline fill="none" stroke="#000000" stroke-width="0.5" points="381.25,358.75 381.25,363.355"/>
<polyline fill="none" stroke="#000000" stroke-width="0.5" points="533.75,358.75 533.75,363.355"/>
<polyline fill="none" stroke="#000000" stroke-width="0.5" points="106.75,358.75 106.75,361.513"/>
<polyline fill="none" stroke="#000000" stroke-width="0.5" points="137.25,358.75 137.25,361.513"/>
<polyline fill="none" stroke="#000000" stroke-width="0.5" points="167.75,358.75 167.75,361.513"/>
<polyline fill="none" stroke="#000000" stroke-width="0.5" points="198.25,358.75 198.25,361.513"/>
<polyline fill="none" stroke="#000000" stroke-width="0.5" points="259.25,358.75 259.25,361.513"/>
<polyline fill="none" stroke="#000000" stroke-width="0.5" points="289.75,358.75 289.75,361.513"/>
<polyline fill="none" stroke="#000000" stroke-width="0.5" points="320.25,358.75 320.25,361.513"/>
<polyline fill="none" stroke="#000000" stroke-width="0.5" points="350.75,358.75 350.75,361.513"/>
<polyline fill="none" stroke="#000000" stroke-width="0.5" points="411.75,358.75 411.75,361.513"/>
<polyline fill="none" stroke="#000000" stroke-width="0.5" points="442.25,358.75 442.25,361.513"/>
<polyline fill="none" stroke="#000000" stroke-width="0.5" points="472.75,358.75 472.75,361.513"/>
<polyline fill="none" stroke="#000000" stroke-width="0.5" points="503.25,358.75 503.25,361.513"/>
<text fill="#000000" style="stroke:none" x="72" y="375" transform="rotate(-0, 72, 375)" font-size="10" font-family="SansSerif" font-style="normal" font-weight="normal">0</text>
<text fill="#000000" style="stroke:none" x="222" y="375" transform="rotate(-0, 222, 375)" font-size="10" font-family="SansSerif" font-style="normal" font-weight="normal">50</text>
<text fill="#000000" style="stroke:none" x="372" y="375" transform="rotate(-0, 372, 375)" font-size="10" font-family="SansSerif" font-style="normal" font-weight="normal">100</text>
<text fill="#000000" style="stroke:none" x="524" y="375" transform="rotate(-0, 524, 375)" font-size="10" font-family="SansSerif" font-style="normal" font-weight="normal">150</text>
</g>
</svg>
